<?xml version="1.0" encoding="UTF-8"?>
<svg id="Layer_2" data-name="Layer 2" xmlns="http://www.w3.org/2000/svg" viewBox="0 0 113.48 113.48">
  <defs>
    <style>
      .cls-1 {
        fill: #f2f2f2;
      }

      .cls-2 {
        fill: #f4b400;
      }

      .cls-3 {
        fill: #191919;
      }
    </style>
  </defs>
  <g id="Layer_1-2" data-name="Layer 1">
    <g>
      <rect class="cls-3" x="0" y="0" width="113.48" height="113.48" rx="55.11" ry="55.11"/>
      <g>
        <path class="cls-2" d="M82.76,64.35v14.95h14.95v-14.95h-14.95ZM95.09,76.68h-9.71v-9.71h9.71v9.71Z"/>
        <g>
          <path class="cls-1" d="M71.27,51.01v-16.82h-11.97v16.82h-31.55s0-16.82,0-16.82h-11.97v45.11h11.97v-16.83h5.11v16.83h47.76v-16.83h17.09v-11.45h-26.44ZM42.21,76.68h-6.73v-16.83h-10.35v16.83h-6.73v-39.87h6.73v16.83h17.09v23.04ZM68.65,76.68h-23.82v-23.04h17.09v-16.82h6.73v39.87ZM95.09,59.85h-17.09v16.83h-6.73v-23.04h23.82v6.21Z"/>
          <path class="cls-1" d="M51.57,70.46h10.35v-10.61h-10.35v10.61ZM54.19,62.47h5.11v5.37h-5.11v-5.37Z"/>
        </g>
      </g>
    </g>
  </g>
</svg>