<?xml version="1.0" encoding="UTF-8"?>
<svg id="Layer_2" data-name="Layer 2" xmlns="http://www.w3.org/2000/svg" viewBox="0 0 557.1 422.9">
  <defs>
    <style>
      .cls-1 {
        fill: #f2f2f2;
      }

      .cls-2 {
        fill: #f4b400;
      }
    </style>
  </defs>
  <g id="Layer_1-2" data-name="Layer 1">
    <g>
      <path class="cls-2" d="M455.45,205.06v101.65h101.65v-101.65h-101.65ZM539.27,288.88h-66.01v-66.01h66.01v66.01Z"/>
      <g>
        <path class="cls-1" d="M377.34,114.41V.01h-81.42v114.38H81.41s0-114.4,0-114.4H0v306.71h81.41v-114.41h34.76v114.41h324.75v-114.41h116.17v-77.89h-179.76ZM179.76,288.88h-45.76v-114.41H63.59v114.41H17.82V17.82h45.76v114.41h116.17v156.65ZM359.52,288.9h-161.94v-156.68h116.17V17.83h45.77v271.07ZM539.27,174.47h-116.17v114.41h-45.76v-156.65h161.93v42.24Z"/>
        <path class="cls-1" d="M243.35,246.63h70.4v-72.15h-70.4v72.15ZM261.17,192.31h34.75v36.51h-34.75v-36.51Z"/>
      </g>
      <polygon class="cls-1" points="15.57 348.19 15.57 371.18 71.23 371.18 71.23 422.85 0 422.85 0 408.83 55.67 408.83 55.67 385.2 0 385.2 0 334.2 71.23 334.2 71.23 348.19 15.57 348.19"/>
      <polygon class="cls-1" points="154.88 334.2 154.88 348.19 127.08 348.19 127.08 422.9 111.42 422.9 111.42 348.19 83.65 348.19 83.65 334.2 154.88 334.2"/>
      <polygon class="cls-1" points="369.45 348.19 369.45 408.83 382.84 408.83 382.84 422.85 340.46 422.85 340.46 408.83 353.86 408.83 353.86 348.19 340.46 348.19 340.46 334.2 382.84 334.2 382.84 348.19 369.45 348.19"/>
      <path class="cls-1" d="M307.43,334.2h-55.66v88.65h55.66l15.59-14.02v-60.64l-15.59-13.99ZM267.36,348.19h31.99l8.08,7.26v47.13l-6.95,6.25h-33.12v-60.64Z"/>
      <polygon class="cls-1" points="501.45 348.19 501.45 371.18 557.08 371.18 557.08 422.85 485.85 422.85 485.85 408.83 541.52 408.83 541.52 385.2 485.85 385.2 485.85 334.2 557.08 334.2 557.08 348.19 501.45 348.19"/>
      <path class="cls-1" d="M455.94,334.2h-40.07l-15.59,13.99v60.64l15.59,14.02h40.07l15.59-14.02v-60.64l-15.59-13.99ZM422.82,408.83l-6.95-6.25v-47.13l8.08-7.26h23.91l8.08,7.26v47.13l-6.95,6.25h-26.17Z"/>
      <polygon class="cls-1" points="238.52 334.2 238.52 408.83 222.96 422.85 182.86 422.85 167.29 408.83 167.29 334.2 182.86 334.2 182.86 402.58 189.81 408.83 216 408.83 222.96 402.58 222.96 334.2 238.52 334.2"/>
    </g>
  </g>
</svg>